<svg xmlns="http://www.w3.org/2000/svg" width="40" height="40" viewBox="0 0 36 36"><path fill="#000000" d="M6 6h16v4h2V6a2 2 0 0 0-2-2H6a2 2 0 0 0-2 2v16a2 2 0 0 0 2 2h4v-2H6Z" class="clr-i-outline clr-i-outline-path-1"></path><path fill="#000000" d="M30 12H14a2 2 0 0 0-2 2v16a2 2 0 0 0 2 2h16a2 2 0 0 0 2-2V14a2 2 0 0 0-2-2m0 18H14V14h16Z" class="clr-i-outline clr-i-outline-path-2"></path><path fill="#000000" d="M21 28h2v-5h5v-2h-5v-5h-2v5h-5v2h5z" class="clr-i-outline clr-i-outline-path-3"></path><path fill="none" d="M0 0h36v36H0z"></path></svg>
