<svg xmlns="http://www.w3.org/2000/svg" width="40" height="40" viewBox="0 0 32 32"><path fill="#000000" d="m21.786 12.873l7.556-4.36l-7.556-4.363v2.7c-2.93.375-4.905 2.64-6.81 4.953c.546.703 1.08 1.418 1.605 2.127l.574.77c.802-1.043 1.584-2 2.34-2.74c.885-.885 1.674-1.393 2.292-1.588v2.5zm-4.125 4.133c-1.892-2.37-3.814-5.354-6.008-7.537c-1.46-1.43-3.155-2.665-5.34-2.694h-3.5v3.5h3.5c.97-.12 2.845 1.333 4.712 3.77c1.895 2.372 3.815 5.355 6.01 7.538c1.327 1.297 2.848 2.426 4.752 2.645v2.645l7.556-4.363l-7.556-4.362v2.535c-1.04-.34-2.58-1.663-4.125-3.68z"></path></svg>
